<?xml version="1.0" encoding="UTF-8" standalone="no"?>
<!-- Created with Inkscape (http://www.inkscape.org/) -->

<svg
   version="1.1"
   id="svg1"
   width="318.94006"
   height="305.53903"
   viewBox="0 0 318.94006 305.53903"
   xmlns="http://www.w3.org/2000/svg"
   xmlns:svg="http://www.w3.org/2000/svg">
  <defs
     id="defs1" />
  <g
     id="g1"
     transform="translate(-352.52997,-210.78403)">
    <path
       style="fill:#2c3f4b;fill-opacity:1"
       d="m 495.10059,515.67873 c -17.23122,-1.85009 -36.42933,-9.37216 -50.0479,-19.60942 -7.79319,-5.85825 -18.7652,-17.74651 -25.04709,-27.1387 -4.51886,-6.75626 -5.95141,-8.09958 -12.07255,-11.32057 -20.2755,-10.6691 -39.42698,-31.30924 -47.87051,-51.59151 -9.51287,-22.85094 -10.05472,-52.85055 -1.40194,-77.61838 5.53088,-15.83165 14.89312,-30.1607 27.43911,-41.99595 7.08028,-6.67917 21.63814,-16.97451 27.54686,-19.48117 1.96344,-0.83295 4.12769,-3.32143 6.45402,-7.4209 4.5943,-8.09609 20.56971,-24.2837 29.8421,-30.23848 34.10526,-21.90261 74.12781,-24.43441 111.71694,-7.06716 17.04511,7.87532 30.29992,19.09788 40.41086,34.215 4.45695,6.66369 5.85832,7.98473 11.09993,10.46362 14.3333,6.77857 29.97686,19.52561 39.48463,32.17374 6.40209,8.51667 13.05827,22.61908 16.14943,34.21571 2.43101,9.12003 2.66557,11.62794 2.66557,28.5 0,16.9254 -0.22859,19.35113 -2.68566,28.5 -5.01718,18.68131 -14.83226,35.51792 -28.92405,49.61572 -8.15012,8.15362 -23.10362,18.85258 -29.12861,20.841 -2.76768,0.91342 -4.39836,2.54465 -7.27088,7.27331 -10.57733,17.41217 -33.12418,34.54996 -55.36026,42.07916 -15.63221,5.29312 -35.92093,7.43874 -53,5.60498 z m 38.26585,-25.76299 c 15.15008,-4.52112 25.74612,-11.09238 36.56299,-22.67498 13.92474,-14.91048 19.20821,-31.17255 15.97101,-49.15745 -1.88656,-10.48116 -4.72252,-18.34939 -8.87123,-24.6128 l -3.03598,-4.58349 6.42236,-8.41726 c 3.5323,-4.6295 6.64484,-9.04455 6.91677,-9.81123 0.61147,-1.72397 0.0177,-2.43429 8.44772,10.10603 12.16312,18.09363 16.10987,27.81185 17.21956,42.40033 l 0.60095,7.90033 7.55177,-7.40033 c 11.10064,-10.87803 17.86914,-21.43725 22.53526,-35.15622 9.02959,-26.54809 3.3282,-57.21771 -14.59483,-78.51026 -14.53767,-17.27076 -31.23051,-24.69505 -50.14991,-22.30465 -13.75113,1.73742 -31.5328,8.23682 -37.99324,13.88697 l -3.34905,2.929 -8,-6.44104 c -4.4,-3.54258 -8.1284,-6.79543 -8.28533,-7.22857 -0.52132,-1.43889 11.18697,-12.34275 17.78533,-16.56337 9.55346,-6.11083 15.26004,-8.28528 31.39806,-11.96399 l 2.89806,-0.66062 -3.89806,-4.02433 c -6.18355,-6.38384 -20.25739,-15.26154 -29.48281,-18.5976 -11.56581,-4.18238 -21.80973,-5.67208 -34.19546,-4.9728 -22.33865,1.26121 -39.03456,9.36475 -53.49854,25.96607 -11.19709,12.8517 -15.91679,26.06261 -14.99488,41.97221 0.58054,10.01852 3.0584,17.26719 9.08958,26.59043 4.52788,6.99939 4.53021,7.00768 2.49314,8.8422 -1.12144,1.00993 -4.31986,5.09874 -7.1076,9.08624 -2.78774,3.9875 -5.3894,7.25 -5.78146,7.25 -1.90874,0 -14.3241,-16.96383 -18.68478,-25.5301 -2.55002,-5.00936 -5.10742,-13.69803 -6.74606,-22.9195 l -1.25285,-7.0504 -7.93249,8.06607 c -9.64115,9.80349 -16.57222,20.64777 -20.60607,32.24002 -2.63054,7.55951 -3.08495,10.45871 -3.48255,22.2192 -0.39241,11.60715 -0.14345,14.79808 1.75549,22.5 6.50943,26.40164 24.47924,46.49011 47.876,53.52064 15.23589,4.57826 41.02394,0.27908 52.95522,-8.82826 2.41787,-1.84561 4.91406,-3.09658 5.54709,-2.77994 2.69799,1.34951 16.07957,11.34806 16.37537,12.23548 0.51322,1.53964 -18.50776,15.2975 -26.25309,18.98884 -7.09481,3.38131 -18.23596,6.28861 -24.22131,6.32059 -1.7875,0.01 -3.25,0.37023 -3.25,0.80152 0,1.38456 10.31244,10.89515 16.33027,15.06051 7.5205,5.20545 18.95658,9.93995 29.66973,12.28316 11.12545,2.43339 29.35866,1.97988 39.26585,-0.97665 z m 21.30062,-30.75299 c -9.13861,-2.21043 -18.80662,-7.38816 -33.56647,-17.97663 -17.96597,-12.8885 -25.04807,-18.95995 -49.83495,-42.72328 l -9.33494,-8.94947 3.94556,-4.12441 c 2.17006,-2.26842 5.86235,-6.7119 8.20509,-9.8744 2.34274,-3.1625 4.44263,-5.75 4.66641,-5.75 0.22379,0 4.34693,3.9375 9.16254,8.75 8.85661,8.85089 27.39677,25.78402 45.04627,41.14174 11.72631,10.20366 23.76188,16.42826 35.19405,18.2018 4.09748,0.63567 8.00671,1.30834 8.68717,1.49481 0.89553,0.24542 0.46104,2.53237 -1.57332,8.28122 -4.1263,11.66045 -5.31629,13.14804 -10.43693,13.04712 -2.32482,-0.0458 -6.89704,-0.72915 -10.16048,-1.5185 z M 422.21699,424.77991 c -6.28042,-2.28697 -10.00182,-4.55319 -10.77178,-6.55967 -0.80102,-2.08742 2.99761,-13.75578 7.4732,-22.95568 9.07445,-18.65317 26.25522,-40.37506 52.42397,-66.28038 l 14.42559,-14.28038 11.156,7.28038 c 6.13579,4.00421 11.16063,7.52086 11.1663,7.81477 0.006,0.29392 -1.37864,1.35488 -3.07627,2.35769 -8.42241,4.97524 -37.48403,36.58769 -54.79812,59.60792 -9.48544,12.61152 -13.67649,20.81712 -14.85941,29.09304 -0.75735,5.29862 -0.8428,5.41173 -4.26436,5.64483 -1.92034,0.13083 -5.91414,-0.6443 -8.87512,-1.72252 z m 111.3836,-14.22911 c -5.75288,-4.12366 -16.49995,-13.0179 -16.49317,-13.6497 0.004,-0.3501 1.6727,-1.76154 3.70875,-3.13654 8.31403,-5.61469 31.81817,-30.42246 49.00764,-51.7258 10.65067,-13.19965 17.27112,-26.21389 19.53908,-38.40921 1.00431,-5.40039 1.30027,-5.86499 3.73607,-5.86499 3.29143,0 11.41751,2.72281 15.74343,5.27517 3.82417,2.25631 4.14027,4.85922 1.73233,14.26473 -3.36157,13.13043 -13.60919,30.59605 -29.74421,50.69478 -7.21775,8.99086 -42.19802,44.81817 -43.67602,44.73364 -0.30465,-0.0174 -1.9039,-0.99936 -3.5539,-2.18208 z m -3.0522,-67.57663 c -22.66598,-22.11339 -50.32666,-44.51965 -62.22795,-50.40711 -4.73429,-2.34202 -8.07695,-3.22205 -13.57971,-3.5752 l -7.29955,-0.46846 0.88115,-5.619 c 0.48463,-3.09045 2.05873,-8.24301 3.49799,-11.45012 l 2.61685,-5.8311 5.08171,0.69482 c 9.11623,1.24646 15.84893,3.45123 24.55263,8.04032 11.35758,5.98835 32.18227,20.92134 43.0618,30.87879 22.12533,20.25012 34.46728,31.97648 34.46728,32.74813 0,1.01014 -15.58164,18.79664 -16.41601,18.73893 -0.32119,-0.0222 -6.90748,-6.20971 -14.63619,-13.75 z"
       id="path1" />
  </g>
</svg>
